<svg viewBox="0 0 111 30" xmlns="http://www.w3.org/2000/svg">
  <path fill="#E50914" d="M105.062 14.28L111 30c-1.75-.25-3.499-.563-5.28-.845l-3.345-8.686-3.437 7.969c-1.687-.282-3.344-.376-5.031-.595l6.031-13.75L94.468 0h5.063l3.062 7.874L105.875 0h5.124l-5.937 14.28zM90.47 0h-4.594v27.25c1.5.094 3.062.156 4.594.343V0zm-7.845 0H78.03v27.688c1.5.125 3 .28 4.5.5V-.001h.095zM65.03 0v26.906c1.5.125 3 .22 4.5.375V0h-4.5zm-7.875 0L52.5 11.625V0h-4.5v27.906c1.5.125 3 .22 4.5.375V16.22l5.625 12.062c1.687.156 3.375.313 5.031.5V0h-5zM32.97 0v29.156c1.5.094 3 .156 4.5.281V0h-4.5zm-7.875 0h-4.5v29.406c1.5.094 3 .156 4.5.25V0zM10.5 0v29.656c1.5.094 3 .156 4.5.219V0h-4.5zM0 0v30h4.5V0H0z"/>
</svg>